<svg xmlns="http://www.w3.org/2000/svg" width="1000" height="1000" viewBox="0 0 1000 1000"><radialGradient id="a" cx="859.984" cy="290.452" r="874.776" gradientTransform="matrix(1.002 0 0 1 -.741 0)" gradientUnits="userSpaceOnUse"><stop offset="0" stop-color="#FDC70C"/><stop offset=".486" stop-color="#F3903F"/><stop offset="1" stop-color="#ED1C24"/></radialGradient><path fill="url(#a)" d="M1000 589.354c0 113.486-87.382 214.453-195.352 220.903-202.982 10.324-406.313 10.324-609.296 0C87.382 803.807 0 702.84 0 589.354V410.647C0 297.16 87.383 196.194 195.352 189.743c202.982-10.324 406.313-10.324 609.296 0C912.618 196.193 1000 297.16 1000 410.646v178.708z"/><g opacity=".32"><path d="M406.313 512.718L174.32 646.466V378.97zM638.316 512.718L406.313 646.466V378.97zM870.308 512.718L638.316 646.466V378.97z"/></g><g fill="#fff"><path d="M416.164 497.964L184.172 631.712V364.217zM648.166 497.964L416.164 631.712V364.217zM880.158 497.964L648.166 631.712V364.217z"/></g></svg>